<?xml version="1.0" encoding="iso-8859-1"?>
<!-- Generator: Adobe Illustrator 19.0.0, SVG Export Plug-In . SVG Version: 6.00 Build 0)  -->
<svg version="1.1" id="Layer_1" xmlns="http://www.w3.org/2000/svg" xmlns:xlink="http://www.w3.org/1999/xlink" x="0px" y="0px"
	 viewBox="0 0 512 512" style="enable-background:new 0 0 512 512;" xml:space="preserve">
<path style="fill:#AF9CE6;" d="M381.371,121.944h-77.023V33.528c0-14.08-11.414-25.494-25.494-25.494h-45.708
	c-14.08,0-25.494,11.414-25.494,25.494v88.416h-77.023c-14.08,0-25.494,11.414-25.494,25.494v45.708
	c0,14.08,11.414,25.494,25.494,25.494h77.023v259.833c0,14.08,11.414,25.494,25.494,25.494h45.708
	c14.08,0,25.494-11.414,25.494-25.494V218.639h77.023c14.08,0,25.494-11.414,25.494-25.494v-45.708
	C406.865,133.358,395.45,121.944,381.371,121.944z"/>
<path style="fill:#FFD77A;" d="M368.87,148.728h-91.306V46.03c0-6.191-5.019-11.211-11.211-11.211h-20.705
	c-6.191,0-11.211,5.019-11.211,11.211v102.698h-91.306c-6.191,0-11.211,5.019-11.211,11.211v20.706
	c0,6.191,5.019,11.211,11.211,11.211h91.306v274.116c0,6.191,5.019,11.211,11.211,11.211h20.705c6.191,0,11.211-5.019,11.211-11.211
	V191.855h91.306c6.191,0,11.211-5.019,11.211-11.211v-20.706C380.081,153.747,375.061,148.728,368.87,148.728z"/>
<path d="M233.146,512h45.708c18.487,0,33.529-15.041,33.529-33.528V226.674h68.988c18.487,0,33.528-15.041,33.528-33.528v-45.708
	c0-18.487-15.041-33.528-33.528-33.528h-68.988V33.528C312.383,15.041,297.342,0,278.854,0h-45.708
	c-18.487,0-33.528,15.041-33.528,33.528v16.725c0,4.438,3.598,8.035,8.035,8.035c4.438,0,8.035-3.598,8.035-8.035V33.528
	c0-9.626,7.832-17.458,17.458-17.458h45.708c9.626,0,17.459,7.832,17.459,17.458v88.416c0,4.438,3.598,8.035,8.035,8.035h77.023
	c9.626,0,17.458,7.832,17.458,17.458v45.708c0,9.626-7.832,17.458-17.458,17.458h-77.023c-4.438,0-8.035,3.598-8.035,8.035v259.833
	c0,9.626-7.833,17.458-17.459,17.458h-45.708c-9.626,0-17.458-7.832-17.458-17.458V218.639c0-4.438-3.598-8.035-8.035-8.035h-77.024
	c-9.626,0-17.458-7.832-17.458-17.458v-45.708c0-9.626,7.832-17.458,17.458-17.458h77.024c4.438,0,8.035-3.598,8.035-8.035v-39.55
	c0-4.438-3.598-8.035-8.035-8.035c-4.438,0-8.035,3.598-8.035,8.035v31.515h-68.989c-18.487,0-33.528,15.041-33.528,33.528v45.708
	c0,18.487,15.041,33.528,33.528,33.528h68.989v251.798C199.618,496.959,214.659,512,233.146,512z"/>
<path d="M266.352,26.784h-20.705c-10.612,0-19.246,8.634-19.246,19.246v94.663H143.13c-10.612,0-19.246,8.634-19.246,19.246v20.706
	c0,10.612,8.634,19.246,19.246,19.246h83.271v266.08c0,10.613,8.634,19.246,19.246,19.246h20.705
	c10.613,0,19.246-8.634,19.246-19.246v-55.702c0-4.438-3.598-8.035-8.035-8.035s-8.035,3.598-8.035,8.035v55.702
	c0,1.751-1.425,3.175-3.176,3.175h-20.705c-1.751,0-3.176-1.425-3.176-3.175V191.855c0-4.438-3.598-8.035-8.035-8.035H143.13
	c-1.751,0-3.176-1.425-3.176-3.176v-20.706c0-1.751,1.425-3.176,3.176-3.176h91.306c4.438,0,8.035-3.598,8.035-8.035V46.03
	c0-1.751,1.425-3.176,3.175-3.176h20.705c1.752,0,3.176,1.425,3.176,3.176v102.698c0,4.438,3.598,8.035,8.035,8.035h91.306
	c1.751,0,3.175,1.425,3.175,3.176v20.706c0,1.752-1.425,3.176-3.175,3.176h-91.306c-4.438,0-8.035,3.598-8.035,8.035v186.273
	c0,4.438,3.598,8.035,8.035,8.035s8.035-3.598,8.035-8.035V199.89h83.271c10.613,0,19.246-8.634,19.246-19.246v-20.706
	c0-10.612-8.634-19.246-19.246-19.246h-83.271V46.03C285.599,35.417,276.965,26.784,266.352,26.784z"/>
<g>
</g>
<g>
</g>
<g>
</g>
<g>
</g>
<g>
</g>
<g>
</g>
<g>
</g>
<g>
</g>
<g>
</g>
<g>
</g>
<g>
</g>
<g>
</g>
<g>
</g>
<g>
</g>
<g>
</g>
</svg>
